{"title":"Alfredo, Alfredo (1972) DvdRip Ita Spa NKM","uid":6181406,"size":743403520,"categoryP":"video","categoryS":"movies","magnet":"?xt=urn:btih:583a936a5d96169ebd72f3f71dcaacb653c00aad&amp;dn=Alfredo%2C+Alfredo+%281972%29+DvdRip+Ita+Spa+NKM&amp;tr=udp%3A%2F%2Ftracker.openbittorrent.com%3A80&amp;tr=udp%3A%2F%2Fopen.demonii.com%3A1337&amp;tr=udp%3A%2F%2Ftracker.coppersurfer.tk%3A6969&amp;tr=udp%3A%2F%2Fexodus.desync.com%3A6969","seeders":1,"leechers":1,"uploader":"vikkiy","files":1,"time":1297967437,"description":"Plot Summary : \n\nAlfredo, a timid young Italian, lusts after and woos the beautiful Maria Rosa. But when he manages to marry her, he discovers life is not nearly so blissful as he expected.\n\nGeneral\n\nFormat                           : AVI\nFormat/Info                      : Audio Video Interleave\nFile size                        : 709 MiB\nDuration                         : 1h 43mn\nOverall bit rate                 : 961 Kbps\nWriting application              : VirtualDubMod 1.5.10.1 (build 2439/release)\nWriting library                  : VirtualDubMod build 2439/release\n\n\nVideo\n\nID                               : 0\nFormat                           : MPEG-4 Visual\nFormat settings, BVOP            : 1\nFormat settings, QPel            : No\nFormat settings, GMC             : No warppoints\nFormat settings, Matrix          : Default (H.263)\nMuxing mode                      : Packed bitstream\nCodec ID                         : DX50\nCodec ID/Hint                    : DivX 5\nDuration                         : 1h 43mn\nBit rate                         : 787 Kbps\nWidth                            : 640 pixels\nHeight                           : 400 pixels\nDisplay aspect ratio             : 1.600\nFrame rate                       : 25.000 fps\nColor space                      : YUV\nChroma subsampling               : 4:2:0\nBit depth                        : 8 bits\nScan type                        : Progressive\nCompression mode                 : Lossy\nBits/(Pixel*Frame)               : 0.123\nStream size                      : 580 MiB (82%)\nWriting library                  : DivX 5.0.2 (UTC 2002-05-16)\n\n\nAudio #1\n\nID                               : 1\nFormat                           : MPEG Audio\nFormat version                   : Version 1\nFormat profile                   : Layer 3\nCodec ID                         : 55\nCodec ID/Hint                    : MP3\nDuration                         : 1h 43mn\nBit rate mode                    : Constant\nBit rate                         : 64.0 Kbps\nChannel(s)                       : 1 channel\nSampling rate                    : 44.1 KHz\nCompression mode                 : Lossy\nStream size                      : 47.2 MiB (7%)\nAlignment                        : Split accross interleaves\nInterleave, duration             : 40 ms (1.00 video frame)\nInterleave, preload duration     : 500 ms\n\nAudio #2\nID                               : 2\nFormat                           : MPEG Audio\nFormat version                   : Version 1\nFormat profile                   : Layer 3\nMode                             : Joint stereo\nMode extension                   : Intensity Stereo + MS Stereo\nCodec ID                         : 55\nCodec ID/Hint                    : MP3\nDuration                         : 1h 43mn\nBit rate mode                    : Constant\nBit rate                         : 96.0 Kbps\nChannel(s)                       : 2 channels\nSampling rate                    : 48.0 KHz\nCompression mode                 : Lossy\nStream size                      : 70.8 MiB (10%)\nAlignment                        : Split accross interleaves\nInterleave, duration             : 40 ms (1.00 video frame)\nInterleave, preload duration     : 500 ms","torrent":{"xt":"urn:btih:583a936a5d96169ebd72f3f71dcaacb653c00aad","amp;dn":"Alfredo%2C+Alfredo+%281972%29+DvdRip+Ita+Spa+NKM","amp;tr":["udp%3A%2F%2Ftracker.openbittorrent.com%3A80","udp%3A%2F%2Fopen.demonii.com%3A1337","udp%3A%2F%2Ftracker.coppersurfer.tk%3A6969","udp%3A%2F%2Fexodus.desync.com%3A6969"],"infoHash":"583a936a5d96169ebd72f3f71dcaacb653c00aad","infoHashBuffer":{"type":"Buffer","data":[88,58,147,106,93,150,22,158,189,114,243,247,29,202,172,182,83,192,10,173]},"announce":[],"urlList":[]}}